# xmcd
#
# Track frame offsets:
#	150
#	12252
#	27646
#	40593
#	56069
#	72491
#	85236
#	102987
#	117578
#	128319
#	143744
#	155901
#
# Disc length: 2329 seconds
#
# Revision: 1
# Processed by: cddbd v1.5.2PL0 Copyright (c) Steve Scherf et al.
# Submitted via: audiograbber 1.83.01
#
DISCID=a509170c
DTITLE=Erin Hay - Blue Country Song
DYEAR=2010
DGENRE=Country
TTITLE0=I'll Walk Before I Crawl
TTITLE1=Between An Old Memory And Me
TTITLE2=Empty Arms
TTITLE3=Harper Valley PTA
TTITLE4=Looks Like Lonesome
TTITLE5=Don't Call Me From A Honky Tonk
TTITLE6=Blue Country Song
TTITLE7=In For A Heartache
TTITLE8=Country Music's King
TTITLE9=Long Days
TTITLE10=Somebody Led Me Away
TTITLE11=In Slow Motion
EXTD=
EXTT0=
EXTT1=
EXTT2=
EXTT3=
EXTT4=
EXTT5=
EXTT6=
EXTT7=
EXTT8=
EXTT9=
EXTT10=
EXTT11=
PLAYORDER=
